<?xml version="1.0" encoding="utf-8"?>
<!-- Generator: Adobe Illustrator 19.1.0, SVG Export Plug-In . SVG Version: 6.00 Build 0)  -->
<svg version="1.1" id="Layer_1" xmlns="http://www.w3.org/2000/svg" xmlns:xlink="http://www.w3.org/1999/xlink" x="0px" y="0px"
	 viewBox="0 0 1080 1920" style="enable-background:new 0 0 1080 1920;" xml:space="preserve">
<style type="text/css">
	.st0{fill:#FDE3E0;}
	.st1{fill:#EE3625;}
	.st2{fill:#1FAB88;}
	.st3{fill:#FDE3E0;stroke:#000000;stroke-miterlimit:10;}
</style>
<rect x="180" y="0" class="st0" width="359.9" height="357.6"/>
<ellipse class="st1" cx="359.9" cy="178.8" rx="133.1" ry="132.2"/>
<g>
	<polygon class="st2" points="359.9,104.6 412.1,86.5 382.1,122.2 	"/>
	<polygon class="st2" points="359.9,104.7 307.8,86.6 337.8,122.3 	"/>
	<polygon class="st2" points="359.9,139.3 412.1,157.4 382.1,121.7 	"/>
	<polygon class="st2" points="359.9,139.1 307.8,157.3 337.8,121.5 	"/>
	<rect x="337.8" y="104.6" class="st2" width="44.6" height="34.8"/>
</g>
<rect x="539.9" y="0" class="st0" width="359.9" height="357.6"/>
<ellipse class="st1" cx="719.9" cy="178.8" rx="133.1" ry="132.2"/>
<g>
	<polygon class="st2" points="719.9,104.6 772,86.5 742,122.2 	"/>
	<polygon class="st2" points="719.9,104.7 667.7,86.6 697.8,122.3 	"/>
	<polygon class="st2" points="719.9,139.3 772,157.4 742,121.7 	"/>
	<polygon class="st2" points="719.9,139.1 667.7,157.3 697.8,121.5 	"/>
	<rect x="697.8" y="104.6" class="st2" width="44.6" height="34.8"/>
</g>
<rect x="360.1" y="357.6" class="st0" width="359.9" height="357.6"/>
<ellipse class="st1" cx="540.1" cy="536.4" rx="133.1" ry="132.2"/>
<g>
	<polygon class="st2" points="540.1,462.2 592.2,444.1 562.2,479.8 	"/>
	<polygon class="st2" points="540.1,462.3 487.9,444.2 518,479.9 	"/>
	<polygon class="st2" points="540.1,496.9 592.2,515 562.2,479.3 	"/>
	<polygon class="st2" points="540.1,496.8 487.9,514.9 518,479.1 	"/>
	<rect x="518" y="462.2" class="st2" width="44.6" height="34.8"/>
</g>
<rect x="720.1" y="357.6" class="st0" width="359.9" height="357.6"/>
<ellipse class="st1" cx="900" cy="536.4" rx="133.1" ry="132.2"/>
<g>
	<polygon class="st2" points="900,462.2 952.2,444.1 922.2,479.8 	"/>
	<polygon class="st2" points="900,462.3 847.9,444.2 877.9,479.9 	"/>
	<polygon class="st2" points="900,496.9 952.2,515 922.2,479.3 	"/>
	<polygon class="st2" points="900,496.8 847.9,514.9 877.9,479.1 	"/>
	<rect x="877.9" y="462.2" class="st2" width="44.6" height="34.8"/>
</g>
<rect y="357.6" class="st0" width="359.9" height="357.6"/>
<ellipse class="st1" cx="180" cy="536.4" rx="133.1" ry="132.2"/>
<g>
	<polygon class="st2" points="180,462.2 232.1,444.1 202.1,479.8 	"/>
	<polygon class="st2" points="180,462.3 127.8,444.2 157.8,479.9 	"/>
	<polygon class="st2" points="180,496.9 232.1,515 202.1,479.3 	"/>
	<polygon class="st2" points="180,496.8 127.8,514.9 157.8,479.1 	"/>
	<rect x="157.8" y="462.2" class="st2" width="44.6" height="34.8"/>
</g>
<rect x="900" y="0" class="st0" width="359.9" height="357.6"/>
<ellipse class="st1" cx="1080" cy="178.8" rx="133.1" ry="132.2"/>
<g>
	<polygon class="st2" points="1080,104.6 1132.2,86.5 1102.1,122.2 	"/>
	<polygon class="st2" points="1080,104.7 1027.8,86.6 1057.9,122.3 	"/>
	<polygon class="st2" points="1080,139.3 1132.2,157.4 1102.1,121.7 	"/>
	<polygon class="st2" points="1080,139.1 1027.8,157.3 1057.9,121.5 	"/>
	<rect x="1057.9" y="104.6" class="st2" width="44.6" height="34.8"/>
</g>
<rect x="-180" y="0" class="st0" width="359.9" height="357.6"/>
<ellipse class="st1" cx="0" cy="178.8" rx="133.1" ry="132.2"/>
<g>
	<polygon class="st2" points="0,104.6 52.2,86.5 22.1,122.2 	"/>
	<polygon class="st2" points="0,104.7 -52.2,86.6 -22.1,122.3 	"/>
	<polygon class="st2" points="0,139.3 52.2,157.4 22.1,121.7 	"/>
	<polygon class="st2" points="0,139.1 -52.2,157.3 -22.1,121.5 	"/>
	<rect x="-22.1" y="104.6" class="st2" width="44.6" height="34.8"/>
</g>
<rect x="180" y="715.2" class="st0" width="359.9" height="357.6"/>
<ellipse class="st1" cx="359.9" cy="894" rx="133.1" ry="132.2"/>
<g>
	<polygon class="st2" points="359.9,819.8 412.1,801.7 382.1,837.4 	"/>
	<polygon class="st2" points="359.9,819.9 307.8,801.8 337.8,837.5 	"/>
	<polygon class="st2" points="359.9,854.5 412.1,872.6 382.1,836.9 	"/>
	<polygon class="st2" points="359.9,854.4 307.8,872.5 337.8,836.8 	"/>
	<rect x="337.8" y="819.8" class="st2" width="44.6" height="34.8"/>
</g>
<rect x="539.9" y="715.2" class="st0" width="359.9" height="357.6"/>
<ellipse class="st1" cx="719.9" cy="894" rx="133.1" ry="132.2"/>
<g>
	<polygon class="st2" points="719.9,819.8 772,801.7 742,837.4 	"/>
	<polygon class="st2" points="719.9,819.9 667.7,801.8 697.8,837.5 	"/>
	<polygon class="st2" points="719.9,854.5 772,872.6 742,836.9 	"/>
	<polygon class="st2" points="719.9,854.4 667.7,872.5 697.8,836.8 	"/>
	<rect x="697.8" y="819.8" class="st2" width="44.6" height="34.8"/>
</g>
<rect x="360.1" y="1072.8" class="st0" width="359.9" height="357.6"/>
<ellipse class="st1" cx="540.1" cy="1251.6" rx="133.1" ry="132.2"/>
<g>
	<polygon class="st2" points="540.1,1177.4 592.2,1159.3 562.2,1195 	"/>
	<polygon class="st2" points="540.1,1177.5 487.9,1159.4 518,1195.1 	"/>
	<polygon class="st2" points="540.1,1212.1 592.2,1230.2 562.2,1194.5 	"/>
	<polygon class="st2" points="540.1,1212 487.9,1230.1 518,1194.4 	"/>
	<rect x="518" y="1177.4" class="st2" width="44.6" height="34.8"/>
</g>
<rect x="720.1" y="1072.8" class="st0" width="359.9" height="357.6"/>
<ellipse class="st1" cx="900" cy="1251.6" rx="133.1" ry="132.2"/>
<g>
	<polygon class="st2" points="900,1177.4 952.2,1159.3 922.2,1195 	"/>
	<polygon class="st2" points="900,1177.5 847.9,1159.4 877.9,1195.1 	"/>
	<polygon class="st2" points="900,1212.1 952.2,1230.2 922.2,1194.5 	"/>
	<polygon class="st2" points="900,1212 847.9,1230.1 877.9,1194.4 	"/>
	<rect x="877.9" y="1177.4" class="st2" width="44.6" height="34.8"/>
</g>
<rect x="0" y="1072.8" class="st0" width="359.9" height="357.6"/>
<ellipse class="st1" cx="180" cy="1251.6" rx="133.1" ry="132.2"/>
<g>
	<polygon class="st2" points="180,1177.4 232.1,1159.3 202.1,1195 	"/>
	<polygon class="st2" points="180,1177.5 127.8,1159.4 157.8,1195.1 	"/>
	<polygon class="st2" points="180,1212.1 232.1,1230.2 202.1,1194.5 	"/>
	<polygon class="st2" points="180,1212 127.8,1230.1 157.8,1194.4 	"/>
	<rect x="157.8" y="1177.4" class="st2" width="44.6" height="34.8"/>
</g>
<rect x="900" y="715.2" class="st0" width="359.9" height="357.6"/>
<ellipse class="st1" cx="1080" cy="894" rx="133.1" ry="132.2"/>
<g>
	<polygon class="st2" points="1080,819.8 1132.2,801.7 1102.1,837.4 	"/>
	<polygon class="st2" points="1080,819.9 1027.8,801.8 1057.9,837.5 	"/>
	<polygon class="st2" points="1080,854.5 1132.2,872.6 1102.1,836.9 	"/>
	<polygon class="st2" points="1080,854.4 1027.8,872.5 1057.9,836.8 	"/>
	<rect x="1057.9" y="819.8" class="st2" width="44.6" height="34.8"/>
</g>
<rect x="-180" y="715.2" class="st0" width="359.9" height="357.6"/>
<ellipse class="st1" cx="0" cy="894" rx="133.1" ry="132.2"/>
<g>
	<polygon class="st2" points="0,819.8 52.2,801.7 22.1,837.4 	"/>
	<polygon class="st2" points="0,819.9 -52.2,801.8 -22.1,837.5 	"/>
	<polygon class="st2" points="0,854.5 52.2,872.6 22.1,836.9 	"/>
	<polygon class="st2" points="0,854.4 -52.2,872.5 -22.1,836.8 	"/>
	<rect x="-22.1" y="819.8" class="st2" width="44.6" height="34.8"/>
</g>
<rect x="180" y="1430.4" class="st0" width="359.9" height="357.6"/>
<ellipse class="st1" cx="359.9" cy="1609.2" rx="133.1" ry="132.2"/>
<g>
	<polygon class="st2" points="359.9,1535 412.1,1516.9 382.1,1552.6 	"/>
	<polygon class="st2" points="359.9,1535.2 307.8,1517 337.8,1552.8 	"/>
	<polygon class="st2" points="359.9,1569.7 412.1,1587.8 382.1,1552.1 	"/>
	<polygon class="st2" points="359.9,1569.6 307.8,1587.7 337.8,1552 	"/>
	<rect x="337.8" y="1535" class="st2" width="44.6" height="34.8"/>
</g>
<rect x="539.9" y="1430.4" class="st0" width="359.9" height="357.6"/>
<ellipse class="st1" cx="719.9" cy="1609.2" rx="133.1" ry="132.2"/>
<g>
	<polygon class="st2" points="719.9,1535 772,1516.9 742,1552.6 	"/>
	<polygon class="st2" points="719.9,1535.2 667.7,1517 697.8,1552.8 	"/>
	<polygon class="st2" points="719.9,1569.7 772,1587.8 742,1552.1 	"/>
	<polygon class="st2" points="719.9,1569.6 667.7,1587.7 697.8,1552 	"/>
	<rect x="697.8" y="1535" class="st2" width="44.6" height="34.8"/>
</g>
<rect x="360.1" y="1788.1" class="st0" width="359.9" height="357.6"/>
<ellipse class="st1" cx="540.1" cy="1966.9" rx="133.1" ry="132.2"/>
<g>
	<polygon class="st2" points="540.1,1892.6 592.2,1874.5 562.2,1910.2 	"/>
	<polygon class="st2" points="540.1,1892.8 487.9,1874.7 518,1910.4 	"/>
	<polygon class="st2" points="540.1,1927.3 592.2,1945.4 562.2,1909.7 	"/>
	<polygon class="st2" points="540.1,1927.2 487.9,1945.3 518,1909.6 	"/>
	<rect x="518" y="1892.6" class="st2" width="44.6" height="34.8"/>
</g>
<rect x="720.1" y="1788.1" class="st0" width="359.9" height="357.6"/>
<ellipse class="st1" cx="900" cy="1966.9" rx="133.1" ry="132.2"/>
<g>
	<polygon class="st2" points="900,1892.6 952.2,1874.5 922.2,1910.2 	"/>
	<polygon class="st2" points="900,1892.8 847.9,1874.7 877.9,1910.4 	"/>
	<polygon class="st2" points="900,1927.3 952.2,1945.4 922.2,1909.7 	"/>
	<polygon class="st2" points="900,1927.2 847.9,1945.3 877.9,1909.6 	"/>
	<rect x="877.9" y="1892.6" class="st2" width="44.6" height="34.8"/>
</g>
<rect x="0" y="1788.1" class="st0" width="359.9" height="357.6"/>
<ellipse class="st1" cx="180" cy="1966.9" rx="133.1" ry="132.2"/>
<g>
	<polygon class="st2" points="180,1892.6 232.1,1874.5 202.1,1910.2 	"/>
	<polygon class="st2" points="180,1892.8 127.8,1874.7 157.8,1910.4 	"/>
	<polygon class="st2" points="180,1927.3 232.1,1945.4 202.1,1909.7 	"/>
	<polygon class="st2" points="180,1927.2 127.8,1945.3 157.8,1909.6 	"/>
	<rect x="157.8" y="1892.6" class="st2" width="44.6" height="34.8"/>
</g>
<rect x="900" y="1430.4" class="st0" width="359.9" height="357.6"/>
<ellipse class="st1" cx="1080" cy="1609.2" rx="133.1" ry="132.2"/>
<g>
	<polygon class="st2" points="1080,1535 1132.2,1516.9 1102.1,1552.6 	"/>
	<polygon class="st2" points="1080,1535.2 1027.8,1517 1057.9,1552.8 	"/>
	<polygon class="st2" points="1080,1569.7 1132.2,1587.8 1102.1,1552.1 	"/>
	<polygon class="st2" points="1080,1569.6 1027.8,1587.7 1057.9,1552 	"/>
	<rect x="1057.9" y="1535" class="st2" width="44.6" height="34.8"/>
</g>
<rect x="-180" y="1430.4" class="st0" width="359.9" height="357.6"/>
<ellipse class="st1" cx="0" cy="1609.2" rx="133.1" ry="132.2"/>
<g>
	<polygon class="st2" points="0,1535 52.2,1516.9 22.1,1552.6 	"/>
	<polygon class="st2" points="0,1535.2 -52.2,1517 -22.1,1552.8 	"/>
	<polygon class="st2" points="0,1569.7 52.2,1587.8 22.1,1552.1 	"/>
	<polygon class="st2" points="0,1569.6 -52.2,1587.7 -22.1,1552 	"/>
	<rect x="-22.1" y="1535" class="st2" width="44.6" height="34.8"/>
</g>
<rect x="-1079.5" y="479.1" class="st3" width="359.9" height="357.6"/>
<ellipse class="st1" cx="-899.6" cy="658" rx="133.1" ry="132.2"/>
<g>
	<polygon class="st2" points="-899.6,583.7 -847.4,565.6 -877.4,601.3 	"/>
	<polygon class="st2" points="-899.6,583.9 -951.7,565.7 -921.7,601.5 	"/>
	<polygon class="st2" points="-899.6,618.4 -847.4,636.5 -877.4,600.8 	"/>
	<polygon class="st2" points="-899.6,618.3 -951.7,636.4 -921.7,600.7 	"/>
	<rect x="-921.7" y="583.7" class="st2" width="44.6" height="34.8"/>
</g>
</svg>
